<?xml version="1.0" standalone="no"?>
<!DOCTYPE svg PUBLIC "-//W3C//DTD SVG 20010904//EN"
 "http://www.w3.org/TR/2001/REC-SVG-20010904/DTD/svg10.dtd">
<svg version="1.0" xmlns="http://www.w3.org/2000/svg"
 width="400.000000pt" height="400.000000pt" viewBox="0 0 400.000000 400.000000"
 preserveAspectRatio="xMidYMid meet">
<metadata>
Created by potrace 1.11, written by Peter Selinger 2001-2013
</metadata>
<g transform="translate(0.000000,400.000000) scale(0.100000,-0.100000)"
fill="#000000" stroke="none">
<path d="M1597 3980 c-22 -18 -41 -67 -51 -134 -1 -8 -5 -18 -9 -22 -3 -4
-149 -6 -324 -6 -175 0 -344 -4 -375 -9 -156 -26 -298 -165 -326 -320 -12 -61
-12 -3097 -1 -3157 28 -149 150 -277 304 -318 40 -11 268 -14 1187 -14 1108 0
1139 1 1202 20 120 37 221 131 267 247 l23 58 2 1557 c1 856 -2 1577 -7 1602
-30 159 -171 298 -332 326 -28 4 -195 8 -370 8 -175 0 -320 2 -323 5 -3 3 -12
35 -21 71 -25 112 -1 106 -443 106 -362 0 -378 -1 -403 -20z m-126 -450 c-2
-8 -4 -34 -5 -57 -1 -34 5 -48 26 -69 l26 -27 464 1 c254 0 471 1 481 1 10 1
32 14 48 30 26 27 29 34 24 77 -4 26 -8 51 -10 55 -3 3 127 7 288 7 271 1 295
-1 334 -19 29 -14 47 -32 61 -60 19 -39 20 -69 20 -1559 l0 -1521 -22 -41
c-43 -84 53 -78 -1206 -78 l-1115 0 -39 23 c-80 46 -74 -100 -72 1619 1 1506
1 1534 21 1566 10 17 37 41 58 51 35 17 62 19 330 17 254 -1 292 -3 288 -16z"/>
<path d="M1400 3108 c-13 -8 -35 -29 -47 -47 -23 -33 -23 -40 -23 -298 0 -378
-11 -365 292 -361 l193 3 -50 32 c-102 65 -148 143 -149 249 0 178 167 299
349 253 25 -6 50 -17 56 -25 24 -29 31 -13 27 61 -3 69 -6 78 -36 108 l-32 32
-278 3 c-210 2 -283 -1 -302 -10z"/>
<path d="M2615 3086 c-16 -8 -52 -36 -80 -62 -27 -26 -119 -113 -204 -193 -84
-80 -159 -151 -166 -158 -9 -8 -38 7 -124 65 -99 67 -118 76 -157 76 -74 -2
-134 -62 -134 -134 0 -50 28 -89 99 -138 289 -198 297 -202 362 -180 32 11 18
-2 482 439 100 96 121 135 104 201 -18 73 -113 117 -182 84z"/>
<path d="M1393 2174 c-60 -30 -64 -52 -63 -354 l1 -271 39 -39 38 -38 204 -1
c195 0 202 0 178 17 -83 58 -120 95 -145 145 -76 157 2 331 170 379 63 18 115
13 183 -17 l52 -24 0 66 c0 73 -17 111 -60 137 -41 24 -548 24 -597 0z"/>
<path d="M2612 2157 c-13 -6 -45 -31 -71 -56 -27 -25 -110 -104 -186 -176 -75
-71 -150 -142 -166 -157 -16 -16 -33 -28 -37 -28 -5 0 -47 27 -94 59 -115 80
-140 92 -183 86 -99 -12 -154 -110 -110 -195 15 -29 295 -228 358 -255 42 -17
99 -6 134 27 42 37 71 65 239 224 87 83 185 175 217 204 87 80 109 136 78 201
-31 66 -116 97 -179 66z"/>
<path d="M1427 1259 c-92 -25 -97 -43 -97 -361 0 -379 -23 -358 378 -355 l272
2 32 33 33 32 3 280 c3 311 1 324 -61 356 -27 15 -69 17 -285 18 -139 1 -263
-2 -275 -5z"/>
</g>
</svg>
